<?xml version="1.0" encoding="UTF-8"?>
<svg id="_图层_1" data-name="图层 1" xmlns="http://www.w3.org/2000/svg" viewBox="0 0 595.28 841.89">
  <defs>
    <style>
      .cls-1 {
        fill: #fff;
        stroke-width: 0px;
      }
    </style>
  </defs>
  <path class="cls-1" d="m368.52,420.95h-68.98c.98-1.6,1.51-2.57,1.51-2.57,0,0,15.78-26.42,32.94-26.42s33.5,26.89,33.5,26.89c0,0,.34.78,1.04,2.1Z"/>
  <path class="cls-1" d="m230.14,420.95h-70.72c9.77-12.65,24.18-28.99,33.55-28.99,15.31,0,36.18,27.37,36.18,27.37,0,0,.34.59.98,1.62Z"/>
  <path class="cls-1" d="m299.54,420.95c-4.53,7.5-18.89,28.99-34.2,28.99s-31.26-22.67-35.21-28.99h69.4Z"/>
  <path class="cls-1" d="m442.88,420.95c-8.31,12.68-21.94,28.99-36.94,28.99-20.65,0-33.78-22.02-37.42-28.99h74.36Z"/>
</svg>