<?xml version="1.0" encoding="UTF-8"?>
<svg id="_图层_1" data-name="图层 1" xmlns="http://www.w3.org/2000/svg" viewBox="0 0 1000 1000">
  <defs>
    <style>
      .cls-1 {
        fill: #fff;
      }
    </style>
  </defs>
  <path class="cls-1" d="M993.42,950.25c4.17,4.87,6.58,10.94,6.58,17.35,0,17.91-18.9,32.58-42.2,32.58-14.36,0-26.95-5.69-34.5-14.17-.15-.18-.49-.5-.75-.9-38.78-45.03-252.39-281.75-422.47-281.75S113.79,942.52,78.58,983.44c-1.43,1.66-2.67,2.94-3.65,3.94,0,.18-.26.38-.26.38-7.29,7.52-19.17,12.42-32.51,12.42-23.3,0-42.16-14.67-42.16-32.58,0-5.07,1.39-9.83,4.28-14.14.26-.17.49-.38.49-.58,2.41-2.63,5.15-5.66,8.04-8.81,70.39-78.74,291.21-334.51,291.21-443.88S82.45,134.24,12.59,55.97c-.26-.2-.49-.41-.49-.58-2.67-2.83-5.07-5.48-7.33-7.93-3.12-4.37-4.77-9.45-4.77-14.73C0,14.67,18.87,0,42.16,0c13.34,0,25.22,4.87,32.51,12.39,0,0,.26.2.26.41.98.96,2.22,2.42,3.87,4.49.26.2.49.38.75.76,38.14,43.89,249.91,278.75,420.52,278.75S881.28,62.7,922.06,16.01c.26-.38.49-.58.75-.96.49-.58.98-1.11,1.24-1.49.26-.2.49-.38.49-.58,7.48-7.9,19.65-12.98,33.26-12.98,23.3,0,42.2,14.67,42.2,32.72,0,6.24-2.41,12.31-6.58,17.18-.49.58-1.24,1.49-2.41,2.65-32.81,35.75-295.08,325.44-295.08,447.64s262.27,411.65,295.08,447.4c1.17,1.17,1.92,2.07,2.41,2.65Z"/>
</svg>