<?xml version="1.0" encoding="UTF-8"?>
<svg id="_图层_1" data-name="图层 1" xmlns="http://www.w3.org/2000/svg" viewBox="0 0 595.28 841.89">
  <defs>
    <style>
      .cls-1 {
        fill: #fff;
        stroke-width: 0px;
      }
    </style>
  </defs>
  <path class="cls-1" d="m437.51,548.53c1.18,1.38,1.86,3.1,1.86,4.92,0,5.08-5.36,9.23-11.96,9.23-4.07,0-7.64-1.61-9.78-4.02-.04-.05-.14-.14-.21-.26-10.99-12.76-71.54-79.85-119.76-79.85s-109.5,67.79-119.48,79.38c-.4.47-.76.83-1.03,1.12,0,.05-.07.11-.07.11-2.07,2.13-5.43,3.52-9.21,3.52-6.6,0-11.95-4.16-11.95-9.23,0-1.44.39-2.79,1.21-4.01.07-.05.14-.11.14-.17.68-.74,1.46-1.6,2.28-2.5,19.95-22.32,82.55-94.81,82.55-125.8s-62.81-103.72-82.61-125.9c-.07-.06-.14-.12-.14-.17-.76-.8-1.44-1.55-2.08-2.25-.88-1.24-1.35-2.68-1.35-4.17,0-5.12,5.35-9.27,11.95-9.27,3.78,0,7.15,1.38,9.21,3.51,0,0,.07.06.07.12.28.27.63.69,1.1,1.27.07.06.14.11.21.22,10.81,12.44,70.84,79,119.2,79s108.06-66.35,119.62-79.58c.07-.11.14-.17.21-.27.14-.17.28-.31.35-.42.07-.06.14-.11.14-.17,2.12-2.24,5.57-3.68,9.43-3.68,6.6,0,11.96,4.16,11.96,9.27,0,1.77-.68,3.49-1.86,4.87-.14.17-.35.42-.68.75-9.3,10.13-83.64,92.23-83.64,126.87s74.34,116.67,83.64,126.8c.33.33.54.59.68.75Z"/>
</svg>